<svg xmlns="http://www.w3.org/2000/svg" viewBox="0 0 1000 1000" xmlns:v="https://vecta.io/nano"><path d="M980.8 521.1L783.2 718.5c-12.2 12.2-32 12.2-44.2 0s-12.2-31.9 0-44.1L914.6 499 739 323.7c-12.2-12.2-12.2-31.9 0-44.1s32-12.2 44.2 0L980.8 477c12.3 12.2 12.3 31.9 0 44.1zM332.9 906.5c-9 15.7-28.9 21.1-44.5 12-15.6-9-20.9-29.1-11.9-44.8L667.1 93.5c9-15.7 28.9-21.1 44.5-12s20.9 29.1 11.9 44.8L332.9 906.5zm-71.9-188c-12.2 12.2-32 12.2-44.2 0L19.1 521.1C7 508.9 7 489.2 19.1 477l197.7-197.4c12.2-12.2 32-12.2 44.2 0s12.2 31.9 0 44.1L85.4 499 261 674.4c12.2 12.2 12.2 31.9 0 44.1z"/></svg>