<svg xmlns="http://www.w3.org/2000/svg" xmlns:xlink="http://www.w3.org/1999/xlink" viewBox="0 0 232.688 232.688" xmlns:v="https://vecta.io/nano"><path d="M97.688 61.344h120c8.284 0 15-6.716 15-15s-6.716-15-15-15h-120c-8.284 0-15 6.716-15 15s6.715 15 15 15z"/><use xlink:href="#B"/><use xlink:href="#B" y="70"/><use xlink:href="#C"/><path d="M48.785 34.408l-9.989-1.452-4.467-9.052a7.5 7.5 0 0 0-6.726-4.181c-2.854 0-5.462 1.621-6.726 4.181l-4.468 9.052-9.988 1.452a7.5 7.5 0 0 0-6.055 5.104C-.516 42.227.22 45.207 2.263 47.2l7.228 7.045-1.707 9.949a7.5 7.5 0 0 0 2.983 7.336 7.49 7.49 0 0 0 4.409 1.433 7.5 7.5 0 0 0 3.489-.861l8.936-4.698 8.936 4.698c1.098.577 2.296.861 3.489.861h.021a7.5 7.5 0 0 0 7.499-7.5 7.52 7.52 0 0 0-.223-1.825l-1.612-9.393 7.228-7.045a7.5 7.5 0 0 0 1.898-7.688 7.49 7.49 0 0 0-6.052-5.104z"/><use xlink:href="#C" y="70"/><defs ><path id="B" d="M217.688 101.344h-120c-8.284 0-15 6.716-15 15s6.716 15 15 15h120c8.284 0 15-6.716 15-15s-6.716-15-15-15z"/><path id="C" d="M48.785 104.408l-9.989-1.452-4.467-9.052a7.5 7.5 0 0 0-6.726-4.181c-2.854 0-5.462 1.621-6.726 4.181l-4.468 9.052-9.988 1.452a7.5 7.5 0 0 0-6.055 5.104c-.882 2.715-.146 5.695 1.897 7.688l7.228 7.045-1.707 9.949a7.5 7.5 0 0 0 2.983 7.336 7.49 7.49 0 0 0 4.409 1.433 7.5 7.5 0 0 0 3.489-.861l8.936-4.698 8.936 4.698c1.098.577 2.296.861 3.489.861h.021a7.5 7.5 0 0 0 7.499-7.5 7.52 7.52 0 0 0-.223-1.825l-1.612-9.393 7.228-7.045a7.5 7.5 0 0 0 1.898-7.688 7.49 7.49 0 0 0-6.052-5.104z"/></defs></svg>