<svg xmlns="http://www.w3.org/2000/svg" width="256" height="256" fill="#000" xmlns:v="https://vecta.io/nano"><path d="M128 192.418c-35.52 0-64.418-28.896-64.418-64.418S92.48 63.582 128 63.582 192.418 92.48 192.418 128 163.523 192.418 128 192.418zM110.221 51.286a2.79 2.79 0 0 1-2.143-.997 2.8 2.8 0 0 1-.451-2.86l17.779-43.72a2.8 2.8 0 0 1 5.187 0l17.782 43.72a2.8 2.8 0 0 1-.454 2.86 2.79 2.79 0 0 1-2.739.933 80.71 80.71 0 0 0-34.369 0 2.66 2.66 0 0 1-.594.064zM128 254.036a2.8 2.8 0 0 1-2.594-1.745l-17.779-43.72a2.8 2.8 0 0 1 3.19-3.792 80.62 80.62 0 0 0 34.369 0c1.017-.224 2.073.14 2.739.933a2.8 2.8 0 0 1 .454 2.86l-17.782 43.72c-.431 1.056-1.456 1.745-2.596 1.745zM48.485 148.583a2.83 2.83 0 0 1-1.056-.204l-43.72-17.782A2.81 2.81 0 0 1 1.964 128a2.8 2.8 0 0 1 1.748-2.594l43.72-17.779a2.8 2.8 0 0 1 3.792 3.19c-1.235 5.66-1.863 11.444-1.863 17.183a80.83 80.83 0 0 0 1.863 17.186 2.8 2.8 0 0 1-2.739 3.397zm159.03 0c-.647 0-1.291-.224-1.804-.658a2.8 2.8 0 0 1-.933-2.739 80.99 80.99 0 0 0 1.86-17.186c0-5.739-.627-11.522-1.86-17.183a2.8 2.8 0 0 1 3.792-3.19l43.72 17.779a2.8 2.8 0 0 1 0 5.188l-43.72 17.782a2.84 2.84 0 0 1-1.056.207zM59.204 87.15a2.37 2.37 0 0 1-.238-.011c-1.036-.09-1.938-.745-2.341-1.7L38.282 41.951c-.443-1.05-.204-2.263.599-3.07s2.022-1.039 3.07-.599l43.488 18.342c.958.403 1.613 1.305 1.7 2.339a2.8 2.8 0 0 1-1.277 2.596 80.93 80.93 0 0 0-13.469 10.833A80.79 80.79 0 0 0 61.56 85.861a2.8 2.8 0 0 1-2.355 1.288zm155.934 130.789c-.367 0-.737-.07-1.09-.218l-43.485-18.342a2.8 2.8 0 0 1-1.7-2.341c-.09-1.036.403-2.036 1.277-2.599 4.887-3.14 9.419-6.786 13.466-10.833h0a80.82 80.82 0 0 0 10.833-13.466c.563-.874 1.549-1.37 2.599-1.277 1.033.087 1.935.745 2.341 1.7l18.342 43.485c.44 1.05.204 2.266-.602 3.07a2.79 2.79 0 0 1-1.983.823zM196.796 87.148c-.949 0-1.837-.479-2.358-1.286-3.14-4.89-6.786-9.419-10.833-13.469h0c-4.053-4.053-8.584-7.699-13.466-10.833a2.79 2.79 0 0 1-1.277-2.596 2.8 2.8 0 0 1 1.7-2.339l43.485-18.342c1.045-.443 2.263-.207 3.07.599s1.042 2.019.602 3.07L199.377 85.44a2.8 2.8 0 0 1-2.341 1.7 3.32 3.32 0 0 1-.238.008zM40.859 217.939a2.8 2.8 0 0 1-1.98-.821c-.807-.807-1.045-2.019-.599-3.07l18.342-43.485c.403-.958 1.305-1.613 2.339-1.7 1.036-.12 2.036.403 2.596 1.277a81.06 81.06 0 0 0 10.833 13.466h0c4.05 4.05 8.579 7.694 13.469 10.833.874.563 1.367 1.563 1.277 2.599a2.81 2.81 0 0 1-1.7 2.341l-43.488 18.342a2.84 2.84 0 0 1-1.09.216z"/></svg>